<?xml version="1.0" standalone="no"?><!DOCTYPE svg PUBLIC "-//W3C//DTD SVG 1.1//EN" "http://www.w3.org/Graphics/SVG/1.1/DTD/svg11.dtd"><svg t="1596770811355" class="icon" viewBox="0 0 1024 1024" version="1.1" xmlns="http://www.w3.org/2000/svg" p-id="6766" xmlns:xlink="http://www.w3.org/1999/xlink" width="32" height="32"><defs><style type="text/css"></style></defs><path d="M536.96 560H464v48h72.96A23.2 23.2 0 0 0 560 584.96v-1.92A23.2 23.2 0 0 0 536.96 560z m0 0H464v48h72.96A23.2 23.2 0 0 0 560 584.96v-1.92A23.2 23.2 0 0 0 536.96 560z m0 0H464v48h72.96A23.2 23.2 0 0 0 560 584.96v-1.92A23.2 23.2 0 0 0 536.96 560z m0 0H464v48h72.96A23.2 23.2 0 0 0 560 584.96v-1.92A23.2 23.2 0 0 0 536.96 560z m0 0H464v48h72.96A23.2 23.2 0 0 0 560 584.96v-1.92A23.2 23.2 0 0 0 536.96 560z m0 0H464v48h72.96A23.2 23.2 0 0 0 560 584.96v-1.92A23.2 23.2 0 0 0 536.96 560zM512 368a256 256 0 1 0 256 256 256 256 0 0 0-256-256z m40 352H544v16a16 16 0 0 1-32 0v-16h-32v16a16 16 0 0 1-32 0v-16h-16a16 16 0 0 1 0-32v-128a16 16 0 0 1 0-32h16v-16a16 16 0 0 1 32 0v16h32v-16a16 16 0 0 1 32 0v16a55.04 55.04 0 0 1 48 54.56v1.92a53.6 53.6 0 0 1-10.24 32 55.2 55.2 0 0 1 26.24 48A56 56 0 0 1 552 720z m8-135.04v-1.92A23.2 23.2 0 0 0 536.96 560H464v48h72.96A23.2 23.2 0 0 0 560 584.96zM552 640H464v48h88a24 24 0 0 0 0-48z m-15.04-80H464v48h72.96A23.2 23.2 0 0 0 560 584.96v-1.92A23.2 23.2 0 0 0 536.96 560z m0 0H464v48h72.96A23.2 23.2 0 0 0 560 584.96v-1.92A23.2 23.2 0 0 0 536.96 560z m0 0H464v48h72.96A23.2 23.2 0 0 0 560 584.96v-1.92A23.2 23.2 0 0 0 536.96 560z m0 0H464v48h72.96A23.2 23.2 0 0 0 560 584.96v-1.92A23.2 23.2 0 0 0 536.96 560z m0 0H464v48h72.96A23.2 23.2 0 0 0 560 584.96v-1.92A23.2 23.2 0 0 0 536.96 560z" fill="#949494" opacity=".5" p-id="6767"></path><path d="M576 278.24V192h80a16 16 0 0 0 14.72-9.92 16 16 0 0 0-3.36-17.44l-144-144a16 16 0 0 0-22.72 0l-144 144a16 16 0 0 0-3.36 17.44A16 16 0 0 0 368 192h80v86.24a352 352 0 1 0 128 0zM512 944a320 320 0 0 1-45.76-636.32 16 16 0 0 0 13.76-16V176a16 16 0 0 0-16-16h-57.44L512 54.56 617.44 160H560a16 16 0 0 0-16 16v115.84a16 16 0 0 0 13.76 16A320 320 0 0 1 512 944z" fill="#949494" p-id="6768"></path></svg>