<?xml version="1.0" standalone="no"?><!DOCTYPE svg PUBLIC "-//W3C//DTD SVG 1.1//EN" "http://www.w3.org/Graphics/SVG/1.1/DTD/svg11.dtd"><svg t="1596765546230" class="icon" viewBox="0 0 1024 1024" version="1.1" xmlns="http://www.w3.org/2000/svg" p-id="3384" xmlns:xlink="http://www.w3.org/1999/xlink" width="32" height="32"><defs><style type="text/css"></style></defs><path d="M511.573333 85.333333C276.053333 85.333333 85.333333 276.48 85.333333 512s190.72 426.666667 426.24 426.666667C747.52 938.666667 938.666667 747.52 938.666667 512S747.52 85.333333 511.573333 85.333333z m295.68 256h-125.866666a667.733333 667.733333 0 0 0-58.88-151.893333A342.613333 342.613333 0 0 1 807.253333 341.333333zM512 172.373333c35.413333 51.2 63.146667 107.946667 81.493333 168.96h-162.986666c18.346667-61.013333 46.08-117.76 81.493333-168.96zM181.76 597.333333C174.933333 570.026667 170.666667 541.44 170.666667 512s4.266667-58.026667 11.093333-85.333333h144.213333c-3.413333 28.16-5.973333 56.32-5.973333 85.333333s2.56 57.173333 5.973333 85.333333H181.76z m34.986667 85.333334h125.866666c13.653333 53.333333 33.28 104.533333 58.88 151.893333A340.778667 340.778667 0 0 1 216.746667 682.666667z m125.866666-341.333334H216.746667a340.778667 340.778667 0 0 1 184.746666-151.893333A667.733333 667.733333 0 0 0 342.613333 341.333333zM512 851.626667c-35.413333-51.2-63.146667-107.946667-81.493333-168.96h162.986666c-18.346667 61.013333-46.08 117.76-81.493333 168.96zM611.84 597.333333H412.16c-3.84-28.16-6.826667-56.32-6.826667-85.333333s2.986667-57.6 6.826667-85.333333h199.68c3.84 27.733333 6.826667 56.32 6.826667 85.333333s-2.986667 57.173333-6.826667 85.333333z m10.666667 237.226667c25.6-47.36 45.226667-98.56 58.88-151.893333h125.866666a342.613333 342.613333 0 0 1-184.746666 151.893333zM698.026667 597.333333c3.413333-28.16 5.973333-56.32 5.973333-85.333333s-2.56-57.173333-5.973333-85.333333h144.213333c6.826667 27.306667 11.093333 55.893333 11.093333 85.333333s-4.266667 58.026667-11.093333 85.333333h-144.213333z" p-id="3385" fill="#ffffff"></path></svg>