<?xml version="1.0" standalone="no"?><!DOCTYPE svg PUBLIC "-//W3C//DTD SVG 1.1//EN" "http://www.w3.org/Graphics/SVG/1.1/DTD/svg11.dtd"><svg t="1597066888146" class="icon" viewBox="0 0 1024 1024" version="1.1" xmlns="http://www.w3.org/2000/svg" p-id="9137" xmlns:xlink="http://www.w3.org/1999/xlink" width="32" height="32"><defs><style type="text/css"></style></defs><path d="M853.333333 256h-93.226666c4.693333-13.44 7.893333-27.52 7.893333-42.666667 0-70.613333-57.386667-128-128-128-44.586667 0-83.84 22.826667-106.666667 57.386667l-21.333333 29.013333-21.333333-29.013333A127.637333 127.637333 0 0 0 384 85.333333c-70.613333 0-128 57.386667-128 128 0 15.146667 2.986667 29.226667 7.893333 42.666667H170.666667c-47.146667 0-84.906667 38.186667-84.906667 85.333333L85.333333 810.666667c0 47.146667 38.186667 85.333333 85.333334 85.333333h682.666666c47.146667 0 85.333333-38.186667 85.333334-85.333333V341.333333c0-47.146667-38.186667-85.333333-85.333334-85.333333zM640 170.666667c23.466667 0 42.666667 19.2 42.666667 42.666666s-19.2 42.666667-42.666667 42.666667-42.666667-19.2-42.666667-42.666667 19.2-42.666667 42.666667-42.666666zM384 170.666667c23.466667 0 42.666667 19.2 42.666667 42.666666s-19.2 42.666667-42.666667 42.666667-42.666667-19.2-42.666667-42.666667 19.2-42.666667 42.666667-42.666666z m469.333333 640H170.666667v-85.333334h682.666666v85.333334z m0-213.333334H170.666667V341.333333h216.746666L298.666667 462.293333 368 512 469.333333 373.973333l42.666667-58.026666 42.666667 58.026666L656 512 725.333333 462.293333 636.586667 341.333333H853.333333v256z" p-id="9138" fill="#33A3F4"></path></svg>