<?xml version="1.0" standalone="no"?><!DOCTYPE svg PUBLIC "-//W3C//DTD SVG 1.1//EN" "http://www.w3.org/Graphics/SVG/1.1/DTD/svg11.dtd"><svg t="1597151141947" class="icon" viewBox="0 0 1024 1024" version="1.1" xmlns="http://www.w3.org/2000/svg" p-id="11367" xmlns:xlink="http://www.w3.org/1999/xlink" width="32" height="32"><defs><style type="text/css"></style></defs><path d="M511.106812 956.239473l0.466893 0.284197 0.568393-0.345096c12.768535-7.937198 27.364047-17.335977 43.015146-27.830941a1502.235445 1502.235445 0 0 0 130.385219-97.804139c114.368726-96.586155 182.535247-189.173261 182.535247-264.343193V233.52819c0-38.508604 4.425343-29.150424-8.444691-31.911189-4.161446-0.893188-8.343192-1.684878-18.249465-3.471255-54.545397-9.967172-109.111093-25.516771-161.525018-47.785584-52.77932-22.410911-103.873761-48.638173-152.81643-78.519388-4.993736-3.187059-10.10927-6.19142-15.326302-8.992784-2.781064 1.380382-6.313219 3.471255-15.306003 8.992784a1156.346174 1156.346174 0 0 1-153.364523 78.539688c-52.353025 22.228213-157.810166 51.622235-212.396162 61.609705-16.564586 3.024661-33.108873-7.835699-36.133534-24.298786-3.06526-16.422488 8.54619-32.215685 25.110776-35.260646 50.343351-9.216081 151.537547-37.412418 199.485528-57.773055A1093.664642 1093.664642 0 0 0 464.437713 20.279439c25.61827-15.671398 31.951788-18.777258 47.054794-18.838158 15.306003-0.060899 22.045516 3.207359 47.602886 18.858457a1110.976259 1110.976259 0 0 0 144.818333 74.357942c47.968282 20.401237 98.230434 34.712553 148.573785 43.928634 10.555864 1.928475 15.021806 2.781064 20.035842 3.85695 56.534771 12.118944 56.575371 12.139244 56.57537 91.267623v332.469115c0 98.697328-76.83451 203.078582-204.01237 310.443898-80.427563 67.922924-196.176671 145.650622-213.593846 145.650622-17.376576 0-131.9077-77.808897-212.132266-145.995718C172.99437 768.913488 95.895964 664.79613 93.88629 566.788994V182.758544c0-16.706685 13.661724-23.669495 30.510506-23.669495 16.767584-0.040599 30.429308 13.499326 30.490207 30.26691v376.803743c1.54278 74.560939 70.237095 167.290144 184.138927 264.099595a1516.828927 1516.828927 0 0 0 129.451431 98.007137c15.5496 10.596463 29.982714 19.995242 42.629451 27.973039z m255.634604-623.019268l16.645786 16.869082c8.931885 9.033384 8.931885 23.567996 0 32.62168L479.358021 690.495599a23.2635 23.2635 0 0 1-16.503687 6.901911 23.141702 23.141702 0 0 1-16.503688-6.901911l-160.367932-162.337007c-8.931885-9.033384-8.931885-23.567996 0-32.62168l16.666085-16.869082a23.162001 23.162001 0 0 1 16.483387-6.881612c6.21172 0 12.139244 2.496868 16.503687 6.881612l127.218461 128.76124 270.900007-274.229165a23.2432 23.2432 0 0 1 16.503688-6.881611c6.17112 0.0203 12.118944 2.496868 16.483387 6.901911z m0 0" p-id="11368" fill="#33A3F4"></path></svg>